# ProBuilder 4.5.0
# https://unity3d.com/unity/features/worldbuilding/probuilder
# 01.08.2021 18:09:24

mtllib ./Cube_(20).mtl
o Cube (20)

g Cube (20)
v 13.15721 4.404494 28.27911
v -1 4.404494 28.27911
v 13.15721 5.404494 28.27911
v -1 5.404494 28.27911
v -1 0 -1
v -1 1 -1
v 13.15721 0 -1
v 13.15721 1 -1
v 13.15721 -37.6088 -2.163895
v -1 -37.97284 -2.163895
v 13.15721 1.243361 -2.163895
v -1 0.879313 -2.163895
v -1 -32.7762 -31.443
v -1 6.075953 -31.443
v 13.15721 -32.41216 -31.443
v 13.15721 6.44 -31.443
v 13.21485 -47.05268 -145.4339
v -0.961 -47.05268 -145.4339
v 13.21485 -6.331662 -145.3893
v -0.961 -6.331662 -145.3893
v -0.961 -42.15101 -163.37
v -0.961 -1.429999 -163.3254
v 13.21485 -42.15101 -163.37
v 13.21485 -1.429999 -163.3254
v 13.21485 -38.24426 -116.2229
v -0.961 -38.24426 -116.2229
v 13.21485 -1.031378 -116.1783
v -0.961 -1.031378 -116.1783
v -0.961 -43.55188 -145.431
v -0.961 -6.339 -145.3864
v 13.21485 -43.55188 -145.431
v 13.21485 -6.339 -145.3864
v 13.23317 -39.53804 -266.4256
v -0.9524069 -39.53804 -266.4256
v 13.23317 10.19558 -261.4378
v -0.9524069 10.19558 -261.4378
v -0.9524069 -29.30389 -329.5234
v -0.9524069 20.42973 -324.5356
v 13.23317 -29.30389 -329.5234
v 13.23317 20.42973 -324.5356
v 13.23317 -29.45493 -329.4256
v -0.9524069 -29.45493 -329.4256
v 13.23317 20.27869 -324.4378
v -0.9524069 20.27869 -324.4378
v -0.9524069 -29.67471 -392.5234
v -0.9524069 20.05891 -387.5356
v 13.23317 -29.67471 -392.5234
v 13.23317 20.05891 -387.5356
v 13.21485 -52.37602 -163.394
v -0.961 -52.37602 -163.394
v 13.21485 -1.415112 -163.394
v -0.961 -1.415112 -163.394
v -0.961 -39.74491 -175.132
v -0.961 11.216 -175.132
v 13.21485 -39.74491 -175.132
v 13.21485 11.216 -175.132
v 13.23317 -29.45493 -392.2256
v -0.9524069 -29.45493 -392.2256
v 13.23317 20.27869 -387.2378
v -0.9524069 20.27869 -387.2378
v -0.9524069 -45.13451 -455.3234
v -0.9524069 4.599107 -450.3356
v 13.23317 -45.13451 -455.3234
v 13.23317 4.599107 -450.3356
v 13.21485 -22.38063 -87.01994
v -0.961 -22.38063 -87.01994
v 13.21485 9.947379 -86.97534
v -0.961 9.947379 -86.97534
v -0.961 -33.35501 -116.228
v -0.961 -1.026999 -116.1834
v 13.21485 -33.35501 -116.228
v 13.21485 -1.026999 -116.1834

vt 13.15721 4.404494
vt -1 4.404494
vt 13.15721 5.404494
vt -1 5.404494
vt 28.27911 4.404494
vt -1 0
vt 28.27911 5.404494
vt -1 1
vt 1 0
vt -13.15721 0
vt 1 1
vt -13.15721 1
vt -28.27911 4.404494
vt -28.27911 5.404494
vt -13.15721 28.76843
vt 1 28.76843
vt -13.15721 -0.8401162
vt 1 -0.8401162
vt 13.15721 -0.9888737
vt -1 -0.9888737
vt 13.15721 28.61967
vt -1 28.61967
vt 13.15721 -43.0488
vt -1 -43.41284
vt 13.15721 -4.196642
vt -1 -4.56069
vt 28.27911 -43.41284
vt -1 -38.2162
vt 28.27911 -4.560688
vt -1 0.635952
vt 1 -38.2162
vt -13.15721 -37.85215
vt 1 0.6359534
vt 1 -37.85215
vt -28.27911 -43.04879
vt -28.27911 -4.196638
vt -13.04498 28.63622
vt 1.116907 28.63622
vt -13.17857 -1.100174
vt 0.9833207 -1.100178
vt 12.17983 5.68502
vt -1.982061 5.68502
vt 12.04624 35.42141
vt -2.115647 35.42141
vt 13.17585 -44.6041
vt -0.9999995 -44.6041
vt 13.17585 -3.88306
vt -0.9999995 -3.88306
vt 16.93614 -44.62267
vt -0.9999847 -39.72101
vt 16.98074 -3.901667
vt -0.9553833 1.000002
vt 0.9999995 -39.72208
vt -13.17585 -39.72208
vt 0.9999995 0.9989548
vt -13.17585 0.9989548
vt 0.9999847 -39.72101
vt -16.93614 -44.62268
vt 0.9553833 1.000002
vt -16.98074 -3.901663
vt -13.17585 17.40863
vt 0.9999995 17.40863
vt -13.17585 -1.185211
vt 0.9999995 -1.185211
vt 13.17585 9.506531
vt -0.9999995 9.506531
vt 13.17585 28.10037
vt -0.9999995 28.10037
vt 13.17585 -30.87142
vt -0.9999995 -30.87142
vt 13.17585 6.341482
vt -0.9999995 6.341482
vt 28.20805 -30.90526
vt -1 -36.21288
vt 28.25266 6.307621
vt -0.9553986 0.999999
vt 0.9999995 -36.21405
vt -13.17585 -36.21405
vt 1 -36.21288
vt -28.20805 -30.90525
vt 0.9553986 0.9999943
vt -28.25267 6.307621
vt -13.17585 28.92517
vt 0.9999995 28.92517
vt -13.17585 -0.7612152
vt 0.9999995 -0.7612152
vt 13.17585 -7.458374
vt -0.9999995 -7.458374
vt 13.17585 22.22801
vt -0.9999995 22.22801
vt 5.006173 -42.53021
vt -9.179407 -42.53021
vt 5.006173 7.452888
vt -9.179407 7.452888
vt -10.22559 -41.71804
vt -73.32336 -31.48389
vt -5.237793 8.015575
vt -68.33557 18.24973
vt 9.179407 -38.64365
vt -5.006173 -38.64365
vt 9.179407 11.33946
vt -5.006173 11.33946
vt 73.32336 -31.4839
vt 10.22559 -41.71804
vt 68.33557 18.24973
vt 5.237793 8.015585
vt -5.006173 -6.453537
vt 9.179407 -6.453537
vt -5.006173 -70.3759
vt 9.179407 -70.3759
vt 5.006173 -67.33685
vt -9.179407 -67.33685
vt 5.006173 -3.41449
vt -9.179407 -3.41449
vt 5.006173 -32.49744
vt -9.179407 -32.49744
vt 5.006173 17.48567
vt -9.179407 17.48567
vt -10.22559 -31.63493
vt -73.32336 -31.85471
vt -5.237793 18.09869
vt -68.33557 17.87891
vt 9.179407 -39.01263
vt -5.006173 -39.01263
vt 9.179407 10.97047
vt -5.006173 10.97047
vt 73.32336 -31.85471
vt 10.22559 -31.63492
vt 68.33557 17.87889
vt 5.237793 18.09869
vt -5.006173 -5.174713
vt 9.179407 -5.174713
vt -5.006173 -68.27286
vt 9.179407 -68.27286
vt 5.006173 -73.4339
vt -9.179407 -73.4339
vt 5.006173 -10.33572
vt -9.179407 -10.33572
vt 13.17585 -62.59203
vt -0.9999995 -62.59203
vt 13.17585 -11.63112
vt -0.9999995 -11.63112
vt 10.73804 -62.59202
vt -1 -49.96091
vt 10.73804 -11.63111
vt 0.9999995 -49.96091
vt -13.17585 -49.96091
vt 0.9999995 1
vt -13.17585 1
vt 1 -49.96091
vt -10.73804 -62.59202
vt -10.73804 -11.63111
vt 13.17585 -15.82989
vt -0.9999995 -15.82989
vt 13.17585 1.413269
vt -0.9999995 1.413269
vt -13.17585 -35.91707
vt 0.9999995 -35.91707
vt -13.17585 -53.16022
vt 0.9999995 -53.16022
vt -73.32336 -47.31451
vt -68.33557 2.419106
vt 9.179407 -54.39526
vt -5.006173 -54.39526
vt 9.179407 -4.412148
vt -5.006173 -4.412148
vt 73.32336 -47.31451
vt 68.33557 2.419106
vt -5.006173 -0.7185059
vt 9.179407 -0.7185059
vt -5.006173 -65.73526
vt 9.179407 -65.73526
vt 5.006173 -82.56967
vt -9.179407 -82.56967
vt 5.006173 -17.55292
vt -9.179407 -17.55292
vt 13.17585 -20.3147
vt -0.9999995 -20.3147
vt 13.17585 12.01334
vt -0.9999995 12.01334
vt 28.20805 -20.35363
vt -1 -31.32801
vt 28.25266 11.97438
vt 0.9999995 -31.32936
vt -13.17585 -31.32936
vt 1 -31.32801
vt -28.20806 -20.35363
vt -28.25266 11.97438
vt -13.17585 30.6591
vt 0.9999995 30.6591
vt -13.17585 -0.5426254
vt 0.9999995 -0.5426254
vt 13.17585 -11.9549
vt -0.9999995 -11.9549
vt 13.17585 19.24683
vt -0.9999995 19.24683

vn 0 0 1
vn -1 0 0
vn 0 0 -1
vn 1 0 0
vn 0 0.9888737 -0.1487575
vn 0 -0.9888737 0.1487575
vn -0.0253109 0.9842965 0.1746991
vn 0.02531087 -0.9842965 -0.1746991
vn 0 -0.001095292 0.9999994
vn 0 0.001095292 -0.9999994
vn 0 0.9646273 0.2636175
vn 0 -0.9646273 -0.2636176
vn 0 0.9838873 -0.1787897
vn 0 -0.9838873 0.1787899
vn 0 -0.09978958 0.9950086
vn 0 0.09978958 -0.9950086
vn 0 0.9871004 0.1601028
vn 0 -0.9871004 -0.1601028
vn 0 0.9999939 -0.003483144
vn 0 -0.9999939 0.003483083
vn 0 0.6807359 0.7325289
vn 0 -0.6807359 -0.7325289
vn 0 0.9704849 -0.2411621
vn 0 -0.9704849 0.2411622
vn 0 0.9361039 -0.3517235
vn 0 -0.9361039 0.3517236

usemtl ProBuilderDefault
f 3/3/1 4/4/1 2/2/1 1/1/1
f 4/7/2 6/8/2 5/6/2 2/5/2
f 6/11/3 8/12/3 7/10/3 5/9/3
f 8/11/4 3/14/4 1/13/4 7/9/4
f 8/17/5 6/18/5 4/16/5 3/15/5
f 1/21/6 2/22/6 5/20/6 7/19/6
f 11/25/1 12/26/1 10/24/1 9/23/1
f 12/29/2 14/30/2 13/28/2 10/27/2
f 14/33/3 16/12/3 15/32/3 13/31/3
f 16/11/4 11/36/4 9/35/4 15/34/4
f 16/39/7 14/40/7 12/38/7 11/37/7
f 9/43/8 10/44/8 13/42/8 15/41/8
f 19/47/9 20/48/9 18/46/9 17/45/9
f 20/51/2 22/52/2 21/50/2 18/49/2
f 22/55/10 24/56/10 23/54/10 21/53/10
f 24/59/4 19/60/4 17/58/4 23/57/4
f 24/63/11 22/64/11 20/62/11 19/61/11
f 17/67/12 18/68/12 21/66/12 23/65/12
f 27/71/9 28/72/9 26/70/9 25/69/9
f 28/75/2 30/76/2 29/74/2 26/73/2
f 30/55/10 32/56/10 31/78/10 29/77/10
f 32/81/4 27/82/4 25/80/4 31/79/4
f 32/85/13 30/86/13 28/84/13 27/83/13
f 25/89/14 26/90/14 29/88/14 31/87/14
f 35/93/15 36/94/15 34/92/15 33/91/15
f 36/97/2 38/98/2 37/96/2 34/95/2
f 38/101/16 40/102/16 39/100/16 37/99/16
f 40/105/4 35/106/4 33/104/4 39/103/4
f 40/109/17 38/110/17 36/108/17 35/107/17
f 33/113/18 34/114/18 37/112/18 39/111/18
f 43/117/15 44/118/15 42/116/15 41/115/15
f 44/121/2 46/122/2 45/120/2 42/119/2
f 46/125/16 48/126/16 47/124/16 45/123/16
f 48/129/4 43/130/4 41/128/4 47/127/4
f 48/133/19 46/134/19 44/132/19 43/131/19
f 41/137/20 42/138/20 45/136/20 47/135/20
f 51/141/1 52/142/1 50/140/1 49/139/1
f 52/145/2 54/8/2 53/144/2 50/143/2
f 54/148/3 56/149/3 55/147/3 53/146/3
f 56/11/4 51/152/4 49/151/4 55/150/4
f 56/155/21 54/156/21 52/154/21 51/153/21
f 49/159/22 50/160/22 53/158/22 55/157/22
f 59/117/15 60/118/15 58/116/15 57/115/15
f 60/121/2 62/162/2 61/161/2 58/119/2
f 62/165/16 64/166/16 63/164/16 61/163/16
f 64/168/4 59/130/4 57/128/4 63/167/4
f 64/171/23 62/172/23 60/170/23 59/169/23
f 57/175/24 58/176/24 61/174/24 63/173/24
f 67/179/9 68/180/9 66/178/9 65/177/9
f 68/183/2 70/76/2 69/182/2 66/181/2
f 70/55/10 72/56/10 71/185/10 69/184/10
f 72/81/4 67/188/4 65/187/4 71/186/4
f 72/191/25 70/192/25 68/190/25 67/189/25
f 65/195/26 66/196/26 69/194/26 71/193/26

